<svg width="60" height="60" fill="none" xmlns="http://www.w3.org/2000/svg"><circle cx="30" cy="30" r="30" fill="#FFE17D"/><path d="M34.355 55.645c-16.569 0-30-13.431-30-30a29.87 29.87 0 016.724-18.921C4.319 12.224 0 20.607 0 30c0 16.569 13.431 30 30 30 9.394 0 17.776-4.32 23.276-11.079a29.87 29.87 0 01-18.921 6.724z" fill="#FFD164"/><path d="M30 35.778c-5.78 0-11.297-.671-16.36-1.884-.655-.157-1.22.528-1.018 1.241 2.335 8.242 9.225 14.22 17.378 14.22s15.043-5.978 17.378-14.22c.202-.713-.363-1.398-1.019-1.241C41.297 35.107 35.78 35.778 30 35.778z" fill="#9C6846"/><path d="M46.36 33.894c-5.063 1.213-10.58 1.884-16.36 1.884-5.78 0-11.297-.671-16.36-1.884-.655-.157-1.22.528-1.018 1.241a21.289 21.289 0 002.717 5.934c4.81.914 9.703 1.417 14.663 1.417 4.959 0 9.85-.503 14.658-1.415a21.285 21.285 0 002.718-5.935c.202-.715-.363-1.4-1.019-1.242zm-26.521-6.748a2.42 2.42 0 01-2.42-2.42v-3.92a2.42 2.42 0 014.839 0v3.92a2.42 2.42 0 01-2.42 2.42z" fill="#7D5046"/><path d="M19.839 18.387c-.166 0-.328.017-.484.049v5.322a1.452 1.452 0 102.903 0v-2.952a2.42 2.42 0 00-2.42-2.419z" fill="#9C6846"/><path d="M40.161 27.146a2.42 2.42 0 01-2.42-2.42v-3.92a2.42 2.42 0 114.839 0v3.92a2.42 2.42 0 01-2.419 2.42z" fill="#7D5046"/><path d="M40.161 18.387c-.165 0-.327.017-.483.049v5.322a1.452 1.452 0 102.903 0v-2.952a2.42 2.42 0 00-2.42-2.419z" fill="#9C6846"/><path d="M43.013 37.199c.524-.897.961-1.857 1.328-2.857-4.498.928-9.32 1.436-14.341 1.436-5.024 0-9.849-.508-14.35-1.438a17.882 17.882 0 001.341 2.867 3.736 3.736 0 002.76 1.843c3.358.408 6.78.627 10.249.627 3.469 0 6.89-.219 10.246-.627a3.744 3.744 0 002.767-1.851z" fill="#fff"/></svg>