<svg width="60" height="60" fill="none" xmlns="http://www.w3.org/2000/svg"><circle cx="30" cy="30" r="30" fill="#FFE17D"/><path d="M19.42 29.774a2.42 2.42 0 01-2.42-2.42V25.42a2.42 2.42 0 014.839 0v1.936a2.42 2.42 0 01-2.42 2.42z" fill="#7D5046"/><path d="M19.42 23c-.166 0-.328.017-.485.049v3.338a1.452 1.452 0 102.904 0v-.968A2.42 2.42 0 0019.419 23z" fill="#9C6846"/><path d="M39.742 29.774a2.42 2.42 0 01-2.42-2.42V25.42a2.42 2.42 0 014.839 0v1.936a2.42 2.42 0 01-2.419 2.42z" fill="#7D5046"/><path d="M39.742 23c-.166 0-.327.017-.484.049v3.338a1.452 1.452 0 102.903 0v-.968A2.42 2.42 0 0039.742 23z" fill="#9C6846"/><path d="M34.355 55.645c-16.569 0-30-13.431-30-30a29.87 29.87 0 016.724-18.921C4.319 12.224 0 20.607 0 30c0 16.569 13.431 30 30 30 9.394 0 17.776-4.32 23.276-11.079a29.87 29.87 0 01-18.921 6.724z" fill="#FFD164"/><path d="M33.92 43.42h-8.71a1.21 1.21 0 110-2.42h8.71a1.21 1.21 0 110 2.42z" fill="#AA7346"/></svg>