<svg width="60" height="60" fill="none" xmlns="http://www.w3.org/2000/svg"><circle cx="30" cy="30" r="30" fill="#FFE17D"/><path d="M19.839 30a2.42 2.42 0 01-2.42-2.42v-1.935a2.42 2.42 0 114.839 0v1.936A2.42 2.42 0 0119.838 30z" fill="#7D5046"/><path d="M19.839 23.226c-.166 0-.328.017-.484.049v3.338a1.452 1.452 0 102.903 0v-.968a2.42 2.42 0 00-2.42-2.42z" fill="#9C6846"/><path d="M40.161 30a2.42 2.42 0 01-2.42-2.42v-1.935a2.42 2.42 0 114.839 0v1.936A2.42 2.42 0 0140.162 30z" fill="#7D5046"/><path d="M40.161 23.226c-.165 0-.327.017-.483.049v3.338a1.452 1.452 0 102.903 0v-.968a2.42 2.42 0 00-2.42-2.42z" fill="#9C6846"/><path d="M20.319 44.758a1.21 1.21 0 01-.89-2.03c2.455-2.668 6.406-4.26 10.567-4.26 4.163 0 8.113 1.593 10.568 4.261a1.21 1.21 0 11-1.78 1.638c-2.005-2.18-5.29-3.48-8.788-3.48-3.497 0-6.782 1.3-8.787 3.48-.238.26-.564.391-.89.391z" fill="#AA7346"/><path d="M34.355 55.645c-16.569 0-30-13.431-30-30a29.87 29.87 0 016.724-18.921C4.319 12.224 0 20.607 0 30c0 16.569 13.431 30 30 30 9.394 0 17.776-4.32 23.276-11.079a29.87 29.87 0 01-18.921 6.724z" fill="#FFD164"/></svg>