<svg width="26" height="26" fill="none" xmlns="http://www.w3.org/2000/svg"><path d="M8.759 16.241a.813.813 0 101.149-1.149l-1.15 1.15zM5 11.333l-.575-.574a.813.813 0 000 1.149L5 11.333zm4.908-3.758a.812.812 0 10-1.15-1.15l1.15 1.15zM5 10.52a.813.813 0 000 1.625V10.52zm10.833 8.666a.813.813 0 000 1.625v-1.625zm-5.925-4.095L5.575 10.76l-1.15 1.149L8.76 16.24l1.149-1.149zm-4.333-3.184l4.333-4.333-1.15-1.15-4.333 4.334 1.15 1.149zM5 12.146h11.917V10.52H5v1.625zm11.917 0a3.52 3.52 0 013.52 3.52h1.625a5.146 5.146 0 00-5.145-5.145v1.625zm3.52 3.52a3.52 3.52 0 01-3.52 3.521v1.625a5.146 5.146 0 005.145-5.145h-1.625zm-3.52 3.521h-1.084v1.625h1.084v-1.625z" fill="#C9CEDF"/></svg>