<svg width="19" height="15" fill="none" xmlns="http://www.w3.org/2000/svg"><path d="M14.241 10.241a.813.813 0 01-1.149-1.149l1.15 1.15zM18 5.333l.575-.574a.813.813 0 010 1.149L18 5.333zm-4.908-3.758a.812.812 0 111.15-1.15l-1.15 1.15zM18 4.52a.813.813 0 010 1.625V4.52zM7.167 13.187a.813.813 0 010 1.626v-1.626zm5.925-4.095l4.333-4.333 1.15 1.149-4.334 4.333-1.149-1.149zm4.333-3.184l-4.333-4.333 1.15-1.15 4.332 4.334-1.149 1.149zm.575.238H6.083V4.52H18v1.625zm-11.917 0a3.52 3.52 0 00-3.52 3.52H.937a5.146 5.146 0 015.146-5.145v1.625zm-3.52 3.52a3.52 3.52 0 003.52 3.521v1.626A5.146 5.146 0 01.937 9.666h1.625zm3.52 3.521h1.084v1.626H6.083v-1.626z" fill="#C9CEDF"/></svg>