<svg width="18" height="20" viewBox="0 0 18 20" fill="none" xmlns="http://www.w3.org/2000/svg">
<path fill-rule="evenodd" clip-rule="evenodd" d="M8.80711 0C3.97175 0 0.0379639 4.48225 0.0379639 9.99166C0.0379639 15.5011 3.97175 19.9833 8.80711 19.9833C13.6425 19.9833 17.5763 15.5011 17.5763 9.99166C17.5763 4.48225 13.6425 0 8.80711 0ZM14.5216 4.7124C15.506 6.09315 16.1121 7.83593 16.1625 9.73572C14.3389 9.30556 12.6876 9.35604 11.2299 9.68171C10.966 8.97839 10.6927 8.30834 10.417 7.67508C12.0045 6.89582 13.3866 5.90053 14.5216 4.7124ZM9.7645 6.24833C11.1014 5.60779 12.4071 4.7402 13.5337 3.56843C12.254 2.34384 10.6052 1.60437 8.80708 1.60437C8.28087 1.60437 7.76771 1.66886 7.27248 1.78908C7.8444 2.66405 8.78324 4.20373 9.7645 6.24833ZM5.85048 2.31311C6.28235 2.95076 7.31102 4.54733 8.416 6.81889C5.63891 7.84979 2.94424 8.02348 1.64937 8.03963C2.18909 5.47065 3.76799 3.35824 5.85048 2.31311ZM1.49511 9.64806L1.45362 9.64795C1.44949 9.76218 1.44592 9.87651 1.44592 9.99181C1.44592 12.0548 2.1042 13.9449 3.19247 15.4072C3.78025 14.5801 4.85669 13.2425 6.39326 12.0368C7.30957 11.3179 8.46636 10.5938 9.83811 10.0906C9.59227 9.45031 9.33874 8.8394 9.08371 8.26025C8.10404 8.64186 7.05998 8.94977 5.95895 9.17854C4.02909 9.5795 2.38983 9.64806 1.49511 9.64806ZM4.20707 16.5328C4.7131 15.8068 5.74308 14.4855 7.233 13.326C8.24552 12.538 9.29305 11.9525 10.3715 11.5682C10.9972 13.4162 11.5314 15.458 11.8498 17.626C10.9217 18.1081 9.892 18.3791 8.80711 18.3791C7.06761 18.3791 5.46824 17.6866 4.20707 16.5328ZM11.7615 11.1879C12.3274 12.8989 12.8169 14.7711 13.1451 16.7622C14.6704 15.4899 15.7511 13.5665 16.0698 11.3536C14.5922 10.9754 13.1535 10.9203 11.7615 11.1879Z" fill="#10182F"/>
</svg>
