<svg width="19" height="20" viewBox="0 0 19 20" fill="none" xmlns="http://www.w3.org/2000/svg">
<path d="M9.57511 0.0129395C4.67457 0.0129395 0.700439 4.55885 0.700439 10.1667C0.700439 14.6519 3.24335 18.457 6.77147 19.8008C7.21526 19.8944 7.37724 19.5809 7.37724 19.3116C7.37724 19.0701 7.36948 18.4317 7.36504 17.5847C4.89646 18.1979 4.37501 16.2232 4.37501 16.2232C3.97227 15.0501 3.3898 14.7379 3.3898 14.7379C2.58321 14.1083 3.44971 14.1209 3.44971 14.1209C4.34062 14.193 4.80882 15.1677 4.80882 15.1677C5.60098 16.7188 6.88686 16.2713 7.39278 16.0109C7.47266 15.3548 7.70232 14.9073 7.95639 14.6532C5.98597 14.3965 3.91347 13.5255 3.91347 9.63571C3.91347 8.52705 4.25963 7.62065 4.82768 6.91019C4.73559 6.65356 4.4316 5.62075 4.91422 4.22385C4.91422 4.22385 5.65978 3.95079 7.35506 5.26425C8.0629 5.03923 8.82178 4.92672 9.57733 4.92293C10.3307 4.92799 11.0906 5.03923 11.7996 5.26552C13.4938 3.95206 14.2382 4.22512 14.2382 4.22512C14.722 5.62328 14.418 6.65483 14.327 6.91145C14.8961 7.62191 15.239 8.52831 15.239 9.63698C15.239 13.5369 13.1643 14.3953 11.1872 14.6468C11.5056 14.9604 11.7896 15.5798 11.7896 16.5266C11.7896 17.8844 11.7785 18.9791 11.7785 19.3116C11.7785 19.5834 11.9383 19.8994 12.3887 19.7995C15.9113 18.4545 18.452 14.6506 18.452 10.1667C18.452 4.55885 14.4779 0.0129395 9.57511 0.0129395Z" fill="#10182F"/>
</svg>
