<svg width="18" height="16" viewBox="0 0 18 16" fill="none" xmlns="http://www.w3.org/2000/svg">
<path d="M17.206 1.86772C16.5723 2.18447 15.897 2.39442 15.193 2.49636C15.9173 2.00364 16.4701 1.22937 16.73 0.296117C16.0547 0.754854 15.3091 1.07888 14.5146 1.25971C13.8734 0.481796 12.9595 0 11.9626 0C10.0284 0 8.47122 1.78883 8.47122 3.9818C8.47122 4.29733 8.49465 4.60073 8.55216 4.88956C5.64765 4.72816 3.07758 3.14199 1.35106 0.725728C1.04964 1.3216 0.872838 2.00364 0.872838 2.73786C0.872838 4.1165 1.49592 5.33859 2.42468 6.04612C1.86338 6.03398 1.31272 5.8483 0.846211 5.55583C0.846211 5.56796 0.846211 5.58374 0.846211 5.59951C0.846211 7.53398 2.05722 9.14078 3.64528 9.51092C3.3609 9.59951 3.05095 9.64199 2.7293 9.64199C2.50563 9.64199 2.27983 9.62743 2.06787 9.57403C2.52054 11.1505 3.80504 12.3095 5.33238 12.3471C4.14374 13.4066 2.6345 14.0449 1.00065 14.0449C0.714139 14.0449 0.439345 14.0303 0.164551 13.9903C1.71213 15.1274 3.54622 15.7767 5.5241 15.7767C11.953 15.7767 15.4678 9.70874 15.4678 4.44903C15.4678 4.27306 15.4625 4.10316 15.455 3.93447C16.1484 3.37379 16.731 2.67354 17.206 1.86772Z" fill="#10182F"/>
</svg>
