<svg width="123" height="128" fill="none" xmlns="http://www.w3.org/2000/svg"><g filter="url(#filter0_d)"><path fill-rule="evenodd" clip-rule="evenodd" d="M26.003 37.86a4 4 0 011.465-5.466l45.76-26.397a4 4 0 015.463 1.464L96.997 39.14a4 4 0 01-1.465 5.466l-45.76 26.397a4 4 0 01-5.463-1.464L26.003 37.86z" fill="url(#paint0_linear)"/></g><g filter="url(#filter1_d)"><path fill-rule="evenodd" clip-rule="evenodd" d="M40.705 41.089a4 4 0 014.636-3.247l52.08 9.212a4 4 0 013.242 4.631l-6.367 36.226a4 4 0 01-4.637 3.247l-52.08-9.212a4 4 0 01-3.242-4.631l6.367-36.226z" fill="url(#paint1_linear)"/></g><g filter="url(#filter2_d)"><path fill-rule="evenodd" clip-rule="evenodd" d="M92.728 46.224L49.77 71.003a4 4 0 01-5.462-1.464L37.71 58.121l2.994-17.032a4 4 0 014.636-3.247l47.387 8.382z" fill="url(#paint2_linear)"/></g><defs><linearGradient id="paint0_linear" x1="-13.5" y1="37.096" x2="52.235" y2="111.578" gradientUnits="userSpaceOnUse"><stop stop-color="#8B91FF"/><stop offset="1" stop-color="#9664FF"/><stop offset="1" stop-color="#6888F3"/></linearGradient><linearGradient id="paint1_linear" x1="7.672" y1="53.025" x2="37.622" y2="116.633" gradientUnits="userSpaceOnUse"><stop stop-color="#8BFFE5"/><stop offset="1" stop-color="#6487FF"/><stop offset="1" stop-color="#6888F3"/></linearGradient><linearGradient id="paint2_linear" x1="10.204" y1="53.971" x2="38.538" y2="102.111" gradientUnits="userSpaceOnUse"><stop stop-color="#FF8BE0"/><stop offset="1" stop-color="#FFE364"/><stop offset="1" stop-color="#6888F3"/></linearGradient><filter id="filter0_d" x=".466" y=".461" width="122.069" height="116.077" filterUnits="userSpaceOnUse" color-interpolation-filters="sRGB"><feFlood flood-opacity="0" result="BackgroundImageFix"/><feColorMatrix in="SourceAlpha" values="0 0 0 0 0 0 0 0 0 0 0 0 0 0 0 0 0 0 127 0"/><feOffset dy="20"/><feGaussianBlur stdDeviation="12.5"/><feColorMatrix values="0 0 0 0 0.422345 0 0 0 0 0.616772 0 0 0 0 0.954797 0 0 0 0.598039 0"/><feBlend in2="BackgroundImageFix" result="effect1_dropShadow"/><feBlend in="SourceGraphic" in2="effect1_dropShadow" result="shape"/></filter><filter id="filter1_d" x="17.618" y="37.147" width="99.763" height="90.705" filterUnits="userSpaceOnUse" color-interpolation-filters="sRGB"><feFlood flood-opacity="0" result="BackgroundImageFix"/><feColorMatrix in="SourceAlpha" values="0 0 0 0 0 0 0 0 0 0 0 0 0 0 0 0 0 0 127 0"/><feOffset dy="20"/><feGaussianBlur stdDeviation="8"/><feColorMatrix values="0 0 0 0 0.422345 0 0 0 0 0.616772 0 0 0 0 0.954797 0 0 0 0.598039 0"/><feBlend in2="BackgroundImageFix" result="effect1_dropShadow"/><feBlend in="SourceGraphic" in2="effect1_dropShadow" result="shape"/></filter><filter id="filter2_d" x="12.711" y="32.781" width="105.017" height="83.758" filterUnits="userSpaceOnUse" color-interpolation-filters="sRGB"><feFlood flood-opacity="0" result="BackgroundImageFix"/><feColorMatrix in="SourceAlpha" values="0 0 0 0 0 0 0 0 0 0 0 0 0 0 0 0 0 0 127 0"/><feOffset dy="20"/><feGaussianBlur stdDeviation="12.5"/><feColorMatrix values="0 0 0 0 0.422345 0 0 0 0 0.616772 0 0 0 0 0.954797 0 0 0 0.598039 0"/><feBlend in2="BackgroundImageFix" result="effect1_dropShadow"/><feBlend in="SourceGraphic" in2="effect1_dropShadow" result="shape"/></filter></defs></svg>