<svg width="15" height="14" xmlns="http://www.w3.org/2000/svg"><path d="M14.83 4.647L10.548.178a.504.504 0 00-.377-.166.504.504 0 00-.376.166.549.549 0 00-.16.393v2.234H7.763c-3.976 0-6.415 1.173-7.319 3.517C.148 7.102 0 8.071 0 9.23c0 .965.354 2.277 1.062 3.936a21.06 21.06 0 00.201.47c.034.076.07.14.109.193.067.099.145.148.234.148a.24.24 0 00.197-.087.334.334 0 00.07-.218c0-.053-.006-.13-.02-.232a1.881 1.881 0 01-.021-.205 15.377 15.377 0 01-.042-1.073c0-.588.049-1.114.146-1.58a4.88 4.88 0 01.406-1.208 3.03 3.03 0 01.67-.882c.272-.247.566-.45.882-.606a4.632 4.632 0 011.112-.371c.427-.09.856-.153 1.288-.188.432-.035.922-.052 1.468-.052h1.874v2.234a.55.55 0 00.159.393.51.51 0 00.753 0l4.282-4.469a.548.548 0 00.16-.392.55.55 0 00-.16-.393z" fill="#7D7A9E" fill-rule="evenodd"/></svg>